<svg width="27" height="33" viewBox="0 0 27 33" fill="none" xmlns="http://www.w3.org/2000/svg">
<path d="M21.8166 0.396844C22.3106 -0.306788 23.2313 0.131111 23.9237 0.17228C24.9567 0.415557 26.1656 0.269591 27.0003 1.03311C26.0459 2.37674 25.0054 3.65301 24.1034 5.03408C24.8894 5.16133 25.6866 5.23993 26.4613 5.44203C27.1275 5.90239 26.4838 6.62099 26.1769 7.08135C23.6842 10.4386 21.2402 13.8295 18.7326 17.1755C17.4563 16.4868 16.2886 15.5998 14.9637 15.0047C14.3162 15.2667 13.7323 15.6447 13.1035 15.9404C12.3887 15.8805 11.6401 15.218 10.9702 15.7682C9.72385 16.7263 7.97225 17.1867 6.53879 16.3521C4.97059 15.4126 3.39116 14.4845 1.88659 13.4515C0.834881 12.6767 1.79676 10.9289 2.97946 11.0524C3.5521 11.1909 4.05362 11.509 4.5776 11.7672C4.61503 11.4491 4.69737 10.8128 4.7348 10.4947C4.05737 10.0755 3.78789 8.83668 4.86205 8.76183C6.93926 9.79482 8.83682 11.1684 10.8541 12.3174C12.7704 9.74617 14.638 7.13374 16.5581 4.56249C17.3478 3.43593 18.9047 4.27056 20.0051 4.31922C19.934 4.08343 19.7918 3.6081 19.7207 3.36857C20.312 2.30938 21.083 1.35872 21.8166 0.396844Z" fill="white"/>
<path d="M4.07985 15.8317C7.04034 17.6357 10.0645 19.3573 12.9127 21.3297C11.9508 21.9735 10.8018 21.4008 9.78002 21.6666C8.9641 22.2691 8.26421 23.0102 7.49321 23.6689C6.40408 23.1375 5.33366 22.5499 4.42792 21.7377C4.70114 20.7496 5.01179 19.7653 5.15775 18.7472C4.82465 17.7517 3.82534 16.9769 4.07985 15.8317Z" fill="white"/>
<path d="M2.08844 24.4439C2.30926 23.4521 3.11769 22.6549 4.11325 22.4341C5.12753 23.1003 6.51982 23.5382 7.11117 24.6535C7.26462 26.7083 5.16496 27.7076 3.96354 29.01C2.61242 30.0543 1.60189 31.63 0 32.2849C0.602578 29.6501 1.39229 27.0563 2.08844 24.4439Z" fill="white"/>
</svg>
